<svg width="61" height="70" viewBox="0 0 61 70" fill="none" xmlns="http://www.w3.org/2000/svg">
<path fill-rule="evenodd" clip-rule="evenodd" d="M30.3956 0.0212762L36.7917 3.70158L54.3216 13.7213L60.7547 17.4229V52.4784L54.3216 56.1804L36.8412 66.2984L30.4081 70L23.9754 66.2984L6.43299 56.2544L0 52.5524V17.5462L6.43299 13.8447L23.9506 3.70158L30.3464 0.0212789L30.371 0.00711629L30.3956 0.0212762ZM30.3833 0L30.371 0.00711629L30.3586 0H30.3833ZM30.3711 5.34041L26.267 7.702L26.2562 7.70823L8.74389 17.8482L4.62264 20.2196V49.8792L8.72988 52.2428L8.73864 52.2478L26.2766 62.2893L30.4081 64.6667L34.5254 62.2976L34.5357 62.2917L52.0109 52.1767L56.1321 49.8051V20.0963L52.0277 17.7347L52.0162 17.7281L34.492 7.7116L30.3711 5.34041Z" fill="white"/>
<path fill-rule="evenodd" clip-rule="evenodd" d="M32.7735 47.833C35.8954 49.325 39.3216 50.0538 42.7745 49.9606C46.2275 49.8674 49.6102 48.9547 52.6485 47.2964C52.704 47.2672 52.7503 47.223 52.7824 47.1688C52.8144 47.1145 52.831 47.0524 52.8302 46.9893V21.7962C52.831 21.7348 52.8155 21.6743 52.7851 21.6211C52.7547 21.5679 52.7106 21.524 52.6575 21.494L38.8872 13.4711C38.8187 13.433 38.7395 13.4194 38.6624 13.4325C38.5853 13.4456 38.5149 13.4846 38.4626 13.5432C38.4102 13.6018 38.379 13.6765 38.374 13.7552C38.3691 13.834 38.3906 13.9121 38.4352 13.9769C40.2614 16.525 41.5641 19.4162 42.2664 22.4801C42.9688 25.544 43.0566 28.7187 42.5248 31.8174C41.993 34.9161 40.8522 37.8761 39.1697 40.5231C37.4872 43.1702 35.2969 45.4508 32.7278 47.2306C32.678 47.2655 32.6381 47.3128 32.6122 47.368C32.5862 47.4232 32.575 47.4843 32.5797 47.5453C32.5844 47.6062 32.6048 47.6648 32.6389 47.7153C32.6731 47.7658 32.7197 47.8064 32.7742 47.833H32.7735Z" fill="white"/>
<path fill-rule="evenodd" clip-rule="evenodd" d="M40.7223 26.0206C40.1672 19.0537 36.3381 12.7146 30.3135 9.07481C30.2604 9.04233 30.1994 9.02515 30.1372 9.02515C30.075 9.02515 30.014 9.04233 29.961 9.07481L8.31748 21.552C8.26433 21.5817 8.22022 21.6252 8.1898 21.6779C8.15939 21.7306 8.1438 21.7906 8.14469 21.8514V37.7445C8.14678 37.8224 8.1751 37.8974 8.22509 37.9572C8.27508 38.0171 8.34382 38.0583 8.42019 38.0743C8.49656 38.0904 8.57611 38.0802 8.64599 38.0455C8.71587 38.0108 8.772 37.9536 8.8053 37.8831C10.0802 35.0398 11.9119 32.48 14.1924 30.3544C16.4729 28.2288 19.1562 26.5803 22.0844 25.506C25.0125 24.4318 28.1262 23.9534 31.2422 24.0992C34.3582 24.2449 37.4135 25.0118 40.2283 26.3547C40.2831 26.3805 40.3438 26.3915 40.4042 26.3867C40.4646 26.3818 40.5228 26.3612 40.5727 26.3269C40.6227 26.2926 40.6628 26.2459 40.6891 26.1913C40.7153 26.1367 40.7268 26.0762 40.7223 26.0158V26.0206Z" fill="white"/>
<path fill-rule="evenodd" clip-rule="evenodd" d="M17.6271 29.9978C14.7816 31.9748 12.4399 34.5998 10.7923 37.6594C9.14465 40.7189 8.23763 44.1268 8.14495 47.6057C8.14232 47.6685 8.15708 47.7308 8.18758 47.7857C8.21808 47.8406 8.26313 47.8858 8.31769 47.9164L29.9507 60.486C30.0031 60.5178 30.063 60.5346 30.1242 60.5346C30.1853 60.5346 30.2453 60.5178 30.2976 60.486L44.0768 52.4799C44.144 52.4393 44.1956 52.377 44.2232 52.3031C44.2507 52.2291 44.2526 52.148 44.2284 52.0729C44.2043 51.9978 44.1556 51.9332 44.0902 51.8895C44.0249 51.8458 43.9468 51.8258 43.8686 51.8326C43.0686 51.9151 42.2649 51.9563 41.4606 51.9562C35.5763 51.959 29.9078 49.7255 25.5892 45.7024C21.2705 41.6792 18.6201 36.1631 18.1682 30.2576C18.1632 30.1967 18.1424 30.1382 18.108 30.0879C18.0735 30.0377 18.0266 29.9974 17.9718 29.9711C17.917 29.9448 17.8564 29.9334 17.7959 29.9381C17.7354 29.9428 17.6772 29.9634 17.6271 29.9978Z" fill="white"/>
</svg>
