<svg width="748" height="110" viewBox="0 0 748 110" fill="none" xmlns="http://www.w3.org/2000/svg">
<path d="M39.95 107H0.199997V2.44999H39.8C57.5 2.44999 71.15 7.29998 80.75 17C90.45 26.6 95.3 39.25 95.3 54.95C95.3 70.85 90.5 83.5 80.9 92.9C71.5 102.3 57.85 107 39.95 107ZM23.3 23.45V86H38.45C50.25 86 58.8 83.35 64.1 78.05C69.4 72.75 72.05 65.05 72.05 54.95C72.05 45.05 69.5 37.35 64.4 31.85C59.4 26.25 50.7 23.45 38.3 23.45H23.3Z" fill="white"/>
<path d="M120.121 107H95.5215L138.721 2.44999H159.271L202.471 107H177.871L170.821 89.45H127.171L120.121 107ZM149.071 33.05L133.771 71H164.221L149.071 33.05Z" fill="white"/>
<path d="M244.962 107H221.863V23.45H193.512V2.44999H272.863V23.45H244.962V107Z" fill="white"/>
<path d="M288.432 107H263.832L307.032 2.44999H327.582L370.782 107H346.182L339.132 89.45H295.482L288.432 107ZM317.382 33.05L302.082 71H332.532L317.382 33.05Z" fill="white"/>
<path d="M473.544 107H433.794V2.44999H473.394C491.094 2.44999 504.744 7.29998 514.344 17C524.044 26.6 528.894 39.25 528.894 54.95C528.894 70.85 524.094 83.5 514.494 92.9C505.094 102.3 491.444 107 473.544 107ZM456.894 23.45V86H472.044C483.844 86 492.394 83.35 497.694 78.05C502.994 72.75 505.644 65.05 505.644 54.95C505.644 45.05 503.094 37.35 497.994 31.85C492.994 26.25 484.294 23.45 471.894 23.45H456.894Z" fill="white"/>
<path d="M553.715 107H529.115L572.315 2.44999H592.865L636.065 107H611.465L604.415 89.45H560.765L553.715 107ZM582.665 33.05L567.365 71H597.815L582.665 33.05Z" fill="white"/>
<path d="M636.119 54.95C636.119 39.85 641.519 27.05 652.319 16.55C663.219 6.04998 676.419 0.799988 691.919 0.799988C707.419 0.799988 720.569 6.04998 731.369 16.55C742.269 27.05 747.719 39.85 747.719 54.95C747.719 70.15 742.319 83 731.519 93.5C720.619 103.9 707.419 109.1 691.919 109.1C676.519 109.1 663.319 103.9 652.319 93.5C641.519 83 636.119 70.15 636.119 54.95ZM659.219 54.95C659.219 64.25 662.369 72.15 668.669 78.65C674.969 84.95 682.719 88.1 691.919 88.1C701.019 88.1 708.719 84.9 715.019 78.5C721.419 72.1 724.619 64.25 724.619 54.95C724.619 45.85 721.469 38.05 715.169 31.55C708.869 25.05 701.119 21.8 691.919 21.8C682.719 21.8 674.969 25.05 668.669 31.55C662.369 38.05 659.219 45.85 659.219 54.95Z" fill="white"/>
</svg>
